<?xml version="1.0" encoding="UTF-8"?>
<svg version="1.1" xmlns="http://www.w3.org/2000/svg" width="394" height="87">
<path d="M0 0 C11.13290156 -0.20306795 20.09441401 1.08131175 29.640625 7.12109375 C38.50232221 15.78586435 45.79058018 31.54908013 46.265625 44.05859375 C45.96532342 49.27435805 44.14826541 53.58719032 41.640625 58.12109375 C40.980625 58.12109375 40.320625 58.12109375 39.640625 58.12109375 C39.640625 58.78109375 39.640625 59.44109375 39.640625 60.12109375 C37.92578125 61.77734375 37.92578125 61.77734375 35.703125 63.62109375 C32.72017321 66.01036374 32.72017321 66.01036374 30.640625 69.12109375 C29.980625 69.12109375 29.320625 69.12109375 28.640625 69.12109375 C28.640625 69.78109375 28.640625 70.44109375 28.640625 71.12109375 C27.980625 71.12109375 27.320625 71.12109375 26.640625 71.12109375 C26.640625 71.78109375 26.640625 72.44109375 26.640625 73.12109375 C25.980625 73.12109375 25.320625 73.12109375 24.640625 73.12109375 C24.640625 73.78109375 24.640625 74.44109375 24.640625 75.12109375 C23.980625 75.12109375 23.320625 75.12109375 22.640625 75.12109375 C22.640625 75.78109375 22.640625 76.44109375 22.640625 77.12109375 C16.56851488 82.18118551 11.10944795 84.54377918 3.140625 83.99609375 C-1.593482 83.32920216 -5.21793804 81.45535822 -9.359375 79.12109375 C-9.359375 78.46109375 -9.359375 77.80109375 -9.359375 77.12109375 C-10.1328125 76.74984375 -10.1328125 76.74984375 -10.921875 76.37109375 C-12.80527087 75.40524971 -14.65344198 74.3705349 -16.484375 73.30859375 C-21.00146873 70.7006856 -25.67907799 68.41886532 -30.359375 66.12109375 C-30.359375 65.46109375 -30.359375 64.80109375 -30.359375 64.12109375 C-30.9575 63.89421875 -31.555625 63.66734375 -32.171875 63.43359375 C-36.27119941 60.9739991 -37.5374133 57.17998815 -38.796875 52.74609375 C-40.49216818 43.37294385 -36.19494743 33.32939575 -32.15234375 25.02734375 C-31.17070534 22.9215615 -31.17070534 22.9215615 -30.984375 19.62109375 C-30.1036216 14.68887471 -27.60171108 10.91385294 -24.359375 7.12109375 C-23.699375 7.12109375 -23.039375 7.12109375 -22.359375 7.12109375 C-22.359375 6.46109375 -22.359375 5.80109375 -22.359375 5.12109375 C-14.68310547 1.67558655 -8.34698934 0.30087985 0 0 Z M5.640625 20.12109375 C4.30864726 20.23863578 2.97302629 20.31961668 1.63671875 20.3671875 C0.52586914 20.41649414 0.52586914 20.41649414 -0.60742188 20.46679688 C-2.15414137 20.52814356 -3.70102767 20.58541597 -5.24804688 20.63867188 C-9.07846912 20.8156661 -11.1040209 20.95085769 -14.359375 23.12109375 C-16.62286285 27.8995681 -16.77737333 32.86670381 -17.140625 38.0625 C-17.42928545 42.09859162 -17.89052657 46.10239293 -18.359375 50.12109375 C-17.699375 50.12109375 -17.039375 50.12109375 -16.359375 50.12109375 C-16.359375 50.78109375 -16.359375 51.44109375 -16.359375 52.12109375 C-15.699375 52.12109375 -15.039375 52.12109375 -14.359375 52.12109375 C-14.359375 52.78109375 -14.359375 53.44109375 -14.359375 54.12109375 C-12.01968573 55.87654602 -12.01968573 55.87654602 -9.109375 57.62109375 C-7.64757812 58.53375 -7.64757812 58.53375 -6.15625 59.46484375 C-1.59682281 62.16483974 1.21601931 63.77204643 6.640625 63.12109375 C10.0075365 61.37760682 10.0075365 61.37760682 12.640625 59.12109375 C12.640625 58.46109375 12.640625 57.80109375 12.640625 57.12109375 C13.630625 56.78078125 13.630625 56.78078125 14.640625 56.43359375 C17.16341707 55.32987222 19.50430693 54.17343034 21.890625 52.80859375 C22.57640625 52.42058594 23.2621875 52.03257813 23.96875 51.6328125 C25.82143119 50.1923718 25.82143119 50.1923718 26.51171875 47.76171875 C26.66845927 44.55091291 25.94185813 43.01698906 24.453125 40.18359375 C21.70581736 34.57418846 20.03249233 28.92151046 18.4375 22.89453125 C17.91561245 20.23463385 17.91561245 20.23463385 16.640625 19.12109375 C12.73020689 18.9735308 9.40680707 19.17465443 5.640625 20.12109375 Z " fill="#6785FC" transform="translate(44.359375,1.87890625)"/>
<path d="M0 0 C0.67272949 0.03577148 1.34545898 0.07154297 2.03857422 0.10839844 C18.08459374 1.09484882 18.08459374 1.09484882 23.41796875 6.04296875 C28.76748976 12.66052437 31.77337766 18.58852772 31.2109375 27.19921875 C31.14132813 27.79347656 31.07171875 28.38773438 31 29 C28 30 28 30 25.4375 29.25 C23 28 23 28 21 25 C18.69 25.33 16.38 25.66 14 26 C11.43383368 22.15075052 11.44902324 19.5650696 11 15 C10.34 15.33 9.68 15.66 9 16 C5.77385576 16.26365764 2.55452624 16.4443034 -0.67773438 16.60546875 C-4.13254014 16.50193434 -4.13254014 16.50193434 -7 18 C-9.18639453 18.07258946 -11.37500389 18.08373783 -13.5625 18.0625 C-15.35880859 18.04896484 -15.35880859 18.04896484 -17.19140625 18.03515625 C-18.11824219 18.02355469 -19.04507813 18.01195313 -20 18 C-20.28746094 17.35804687 -20.57492188 16.71609375 -20.87109375 16.0546875 C-21.820107 13.82533793 -21.820107 13.82533793 -24.0625 13.125 C-26 12 -26 12 -27 9.125 C-27 6 -27 6 -25.5 3.625 C-22.18554248 1.47060261 -19.89927737 1.86318325 -16 2 C-15.19949219 1.67773438 -14.39898437 1.35546875 -13.57421875 1.0234375 C-9.11274737 -0.75031895 -4.73383871 -0.25232512 0 0 Z " fill="#E603FA" transform="translate(52,4)"/>
<path d="M0 0 C16.02065111 -0.29222218 16.02065111 -0.29222218 22.640625 4.12109375 C21.68542969 4.04890625 20.73023438 3.97671875 19.74609375 3.90234375 C4.98074904 2.41713736 4.98074904 2.41713736 -9.359375 5.12109375 C-10.41125 5.10046875 -11.463125 5.07984375 -12.546875 5.05859375 C-15.3216705 4.88796087 -15.3216705 4.88796087 -17.234375 6.24609375 C-18.8275849 8.90144358 -18.56151532 11.08898893 -18.359375 14.12109375 C-17.555 14.36859375 -16.750625 14.61609375 -15.921875 14.87109375 C-15.07625 15.28359375 -14.230625 15.69609375 -13.359375 16.12109375 C-12.69921875 18.19921875 -12.69921875 18.19921875 -12.359375 20.12109375 C-10.2131724 19.98079956 -8.06741282 19.83371211 -5.921875 19.68359375 C-4.12943359 19.56177734 -4.12943359 19.56177734 -2.30078125 19.4375 C0.52632744 19.44453261 0.52632744 19.44453261 1.640625 18.12109375 C4.49940409 17.88408136 7.33945797 17.69890193 10.203125 17.55859375 C11.00943359 17.51541016 11.81574219 17.47222656 12.64648438 17.42773438 C14.64431305 17.32134113 16.6424457 17.22068487 18.640625 17.12109375 C19.7983756 20.59434556 19.70929152 23.48176823 19.640625 27.12109375 C19.310625 27.12109375 18.980625 27.12109375 18.640625 27.12109375 C17.980625 24.81109375 17.320625 22.50109375 16.640625 20.12109375 C12.74560589 20.04618954 9.39602062 20.16416601 5.640625 21.12109375 C4.30886363 21.2493607 2.97328614 21.3421077 1.63671875 21.40234375 C0.89615234 21.43972656 0.15558594 21.47710938 -0.60742188 21.515625 C-2.15428879 21.58611514 -3.70116385 21.65642675 -5.24804688 21.7265625 C-8.49012314 21.89050358 -11.26338343 22.08909656 -14.359375 23.12109375 C-14.48054688 24.31605469 -14.60171875 25.51101562 -14.7265625 26.7421875 C-16.36341723 42.42239948 -16.36341723 42.42239948 -18.359375 50.12109375 C-17.699375 50.12109375 -17.039375 50.12109375 -16.359375 50.12109375 C-16.359375 50.78109375 -16.359375 51.44109375 -16.359375 52.12109375 C-15.699375 52.12109375 -15.039375 52.12109375 -14.359375 52.12109375 C-14.359375 52.78109375 -14.359375 53.44109375 -14.359375 54.12109375 C-13.658125 54.36859375 -12.956875 54.61609375 -12.234375 54.87109375 C-8.98474864 56.28397477 -6.28455028 58.12948505 -3.359375 60.12109375 C0.27906269 62.46847291 3.36614962 62.28549665 7.640625 62.12109375 C7.640625 62.78109375 7.640625 63.44109375 7.640625 64.12109375 C5.330625 64.12109375 3.020625 64.12109375 0.640625 64.12109375 C0.640625 64.78109375 0.640625 65.44109375 0.640625 66.12109375 C1.960625 66.45109375 3.280625 66.78109375 4.640625 67.12109375 C0.72513518 68.63149154 -2.02848465 67.56209713 -5.921875 66.30859375 C-7.05753906 65.95152344 -8.19320312 65.59445313 -9.36328125 65.2265625 C-14.2072332 63.43928949 -15.81752271 61.43119111 -18.359375 57.12109375 C-19.019375 56.79109375 -19.679375 56.46109375 -20.359375 56.12109375 C-20.359375 54.80109375 -20.359375 53.48109375 -20.359375 52.12109375 C-21.019375 52.12109375 -21.679375 52.12109375 -22.359375 52.12109375 C-22.359375 51.46109375 -22.359375 50.80109375 -22.359375 50.12109375 C-23.019375 50.12109375 -23.679375 50.12109375 -24.359375 50.12109375 C-26.73380068 48.05637577 -28.47918061 45.62801961 -30.359375 43.12109375 C-30.86726563 42.69441406 -31.37515625 42.26773438 -31.8984375 41.828125 C-34.8349233 38.39699053 -34.48423904 33.46011908 -34.359375 29.12109375 C-32.984375 25.87109375 -32.984375 25.87109375 -31.359375 23.12109375 C-31.25625 22.02796875 -31.153125 20.93484375 -31.046875 19.80859375 C-30.11061423 14.78683143 -27.66817554 10.99160048 -24.359375 7.12109375 C-23.699375 7.12109375 -23.039375 7.12109375 -22.359375 7.12109375 C-22.359375 6.46109375 -22.359375 5.80109375 -22.359375 5.12109375 C-14.68310547 1.67558655 -8.34698934 0.30087985 0 0 Z " fill="#B03FFB" transform="translate(44.359375,1.87890625)"/>
<path d="M0 0 C2 0 2 0 4.375 1.875 C7.38848396 4.96825265 8.60657097 8.573737 10.0078125 12.59765625 C11.03583026 15.08675436 12.377811 16.86915852 14 19 C14 19.66 14 20.32 14 21 C19.32482235 23.21867598 22.32225653 24.19531441 28 23 C28.66 23.33 29.32 23.66 30 24 C37.94998757 24.47811114 44.9885566 24.28252296 52.32421875 20.94140625 C58.51375239 18.20208738 62.32403785 17.70787829 69 19 C68.49396008 21.16874252 68.00016187 22.99967627 67 25 C66.34 25 65.68 25 65 25 C65 25.66 65 26.32 65 27 C64.34 27 63.68 27 63 27 C63 27.66 63 28.32 63 29 C62.34 29 61.68 29 61 29 C61 29.66 61 30.32 61 31 C60.34 31 59.68 31 59 31 C59 31.66 59 32.32 59 33 C52.92788988 38.06009176 47.46882295 40.42268543 39.5 39.875 C34.765893 39.20810841 31.14143696 37.33426447 27 35 C27 34.34 27 33.68 27 33 C26.484375 32.7525 25.96875 32.505 25.4375 32.25 C23.55410413 31.28415596 21.70593302 30.24944115 19.875 29.1875 C15.35790627 26.57959185 10.68029701 24.29777157 6 22 C6 21.34 6 20.68 6 20 C5.38125 19.7525 4.7625 19.505 4.125 19.25 C1.53724008 17.72778828 0.94407342 16.83222025 0 14 C-0.03920815 12.00038436 -0.04443347 9.99950636 0 8 C-0.33 7.67 -0.66 7.34 -1 7 C-0.71269945 4.66055264 -0.38063221 2.3260857 0 0 Z " fill="#0354F9" transform="translate(8,46)"/>
<path d="M0 0 C2.31 0 4.62 0 7 0 C7 11.88 7 23.76 7 36 C4.36 36 1.72 36 -1 36 C-1.99 36.495 -1.99 36.495 -3 37 C-8.57971317 37.37198088 -12.19599256 37.20267163 -17 34 C-19.37348763 30.51292399 -19.33083361 27.20089115 -19.375 23.0625 C-19.40335938 21.85722656 -19.43171875 20.65195312 -19.4609375 19.41015625 C-18.92343699 15.43356348 -17.84023702 13.78216526 -15 11 C-14.34 11 -13.68 11 -13 11 C-13 10.34 -13 9.68 -13 9 C-11.18757948 8.97312721 -9.37504767 8.95366285 -7.5625 8.9375 C-6.55316406 8.92589844 -5.54382813 8.91429687 -4.50390625 8.90234375 C-2 9 -2 9 -1 10 C-0.67 6.7 -0.34 3.4 0 0 Z M-10.25 16.5625 C-12.63342008 19.88226368 -12.42929271 21.99326801 -12 26 C-11.54910181 28.40563594 -11.54910181 28.40563594 -10 30 C-7.1403994 31.17110449 -7.1403994 31.17110449 -4 31 C-1.44014926 29.69138543 -1.44014926 29.69138543 0 27 C0.55738988 24.21873826 0.56967004 21.77998981 0 19 C-1.58526981 16.41290128 -1.58526981 16.41290128 -4 15 C-7.90897434 14.61973613 -7.90897434 14.61973613 -10.25 16.5625 Z " fill="#1E1E1E" transform="translate(201,24)"/>
<path d="M0 0 C3.52121839 2.04230667 4.75217677 3.62826516 7 7 C7 9.97 7 12.94 7 16 C1.06 16.33 -4.88 16.66 -11 17 C-10.67 18.32 -10.34 19.64 -10 21 C-7.167832 21.33448259 -7.167832 21.33448259 -4 21 C-3.360625 20.34 -2.72125 19.68 -2.0625 19 C0 17 0 17 3.75 16.75 C4.8225 16.8325 5.895 16.915 7 17 C6.49785005 21.39381209 5.07786311 23.83419795 2 27 C-2.48496298 29.08230424 -9.38780498 28.53739834 -14 27 C-14 26.34 -14 25.68 -14 25 C-14.66 25 -15.32 25 -16 25 C-16 24.34 -16 23.68 -16 23 C-16.66 23 -17.32 23 -18 23 C-20.13286654 18.73426691 -20.59025281 14.6943544 -20 10 C-16.36890759 0.0622734 -9.82398183 -1.37426893 0 0 Z M-12 9 C-12 9.33 -12 9.66 -12 10 C-8.04 10 -4.08 10 0 10 C-1.6454378 8.31237149 -3.31288577 6.6459651 -5 5 C-7.44577191 5 -10.08180104 7.65317945 -12 9 Z " fill="#222222" transform="translate(144,33)"/>
<path d="M0 0 C3.61691275 2.09780939 4.68291409 3.04874226 6 7 C6.08106686 8.55421729 6.10756898 10.11167027 6.09765625 11.66796875 C6.09443359 12.56064453 6.09121094 13.45332031 6.08789062 14.37304688 C6.07951172 15.30181641 6.07113281 16.23058594 6.0625 17.1875 C6.05798828 18.12787109 6.05347656 19.06824219 6.04882812 20.03710938 C6.03704626 22.35813712 6.02059558 24.67903644 6 27 C3.98177083 26.96744792 1.96354167 26.93489583 -0.0546875 26.90234375 C-2.08185404 26.87350758 -2.08185404 26.87350758 -4 28 C-12.95367847 28.28882834 -12.95367847 28.28882834 -16 27 C-18.4915904 23.2626144 -18.45793285 21.42668417 -18 17 C-15.95667555 13.32201599 -14.5589363 12.21736411 -10.625 10.6875 C-7.29993 10.05688328 -4.37134527 9.83554413 -1 10 C-2.32 8.68 -3.64 7.36 -5 6 C-8.12197478 7.3089572 -8.12197478 7.3089572 -10 10 C-12.31 10 -14.62 10 -17 10 C-16.67 8.02 -16.34 6.04 -16 4 C-15.34 4 -14.68 4 -14 4 C-14 3.34 -14 2.68 -14 2 C-9.54757426 -0.96828383 -5.22223487 -0.63369224 0 0 Z M-9.375 18 C-9.91125 18.66 -10.4475 19.32 -11 20 C-10.01 20.99 -9.02 21.98 -8 23 C-4.98352894 21.78379415 -4.98352894 21.78379415 -2 20 C-1.03955898 17.92309422 -1.03955898 17.92309422 -1 16 C-5.59267808 15.57391118 -5.59267808 15.57391118 -9.375 18 Z " fill="#1E1E1E" transform="translate(172,33)"/>
<path d="M0 0 C5.42319487 4.45907134 5.78966931 7.15268518 6.8125 14.3125 C-0.1175 14.3125 -7.0475 14.3125 -14.1875 14.3125 C-13.1975 16.2925 -12.2075 18.2725 -11.1875 20.3125 C-7.2753803 21.36038921 -5.03793114 21.59597705 -1.1875 20.3125 C-0.5275 19.3225 0.1325 18.3325 0.8125 17.3125 C3.4375 17.125 3.4375 17.125 5.8125 17.3125 C4.45967831 21.73991644 2.57951112 23.67559221 -1.1875 26.3125 C-4.01879669 27.72814834 -6.03831562 27.55474495 -9.1875 27.3125 C-12.73703426 25.85092707 -15.83367321 24.40964051 -18.1875 21.3125 C-19.78547339 16.14128056 -19.84297167 10.6318613 -18.375 5.4375 C-14.46713269 -1.55552571 -7.1334499 -3.7765323 0 0 Z M-12.625 5.125 C-14.4781191 7.27132896 -14.4781191 7.27132896 -14.1875 10.3125 C-8.9075 10.3125 -3.6275 10.3125 1.8125 10.3125 C0.33610997 5.25241361 0.33610997 5.25241361 -3.1875 3.3125 C-7.21341218 2.87330958 -9.32265296 2.66940861 -12.625 5.125 Z " fill="#292929" transform="translate(374.1875,34.6875)"/>
<path d="M0 0 C3.22990143 2.0362422 4.96034019 3.49866571 6.875 6.8125 C6.875 9.4525 6.875 12.0925 6.875 14.8125 C-0.055 14.8125 -6.985 14.8125 -14.125 14.8125 C-10.93285183 20.94025262 -10.93285183 20.94025262 -6.6875 21.9375 C-2.37382015 21.78614281 -1.30354298 20.57281364 1.875 17.8125 C4.6875 17.5625 4.6875 17.5625 6.875 17.8125 C5.28490481 22.33815554 3.86076702 24.67777599 -0.3125 27.0625 C-4.10601646 28.07410439 -7.40599705 27.96016107 -11.125 26.8125 C-14.08316504 24.98914827 -16.54473955 22.9730209 -18.125 19.8125 C-18.2479938 17.69014193 -18.30055682 15.56338537 -18.3125 13.4375 C-18.32667969 12.29539062 -18.34085938 11.15328125 -18.35546875 9.9765625 C-18.13229978 6.91271728 -17.84962756 5.31179633 -16.125 2.8125 C-10.4946369 -1.08544368 -6.68462971 -2.54015929 0 0 Z M-10.125 3.8125 C-10.125 4.4725 -10.125 5.1325 -10.125 5.8125 C-10.785 5.8125 -11.445 5.8125 -12.125 5.8125 C-12.785 7.4625 -13.445 9.1125 -14.125 10.8125 C-8.845 10.8125 -3.565 10.8125 1.875 10.8125 C0.96128836 6.42727667 0.96128836 6.42727667 -2.125 3.8125 C-4.84342295 3.55999826 -7.38378635 3.67768621 -10.125 3.8125 Z " fill="#2A2A2A" transform="translate(262.125,34.1875)"/>
<path d="M0 0 C1.65 0 3.3 0 5 0 C5.32613281 0.92941406 5.65226563 1.85882812 5.98828125 2.81640625 C8.15955175 8.95873195 10.33012542 15.05346116 13 21 C14.00657683 23.33054556 15.00231028 25.66562654 16 28 C19.74494107 18.69555879 23.42801558 9.37250779 27 0 C28.65 0 30.3 0 32 0 C22.90353698 32.09646302 22.90353698 32.09646302 18 37 C16.33382885 37.04063832 14.66611905 37.042721 13 37 C9.99530131 30.05471285 7.29952284 23.10560971 4.98046875 15.90234375 C3.73404781 12.21273914 2.2629997 8.63910314 0.734375 5.05859375 C0 3 0 3 0 0 Z " fill="#303030" transform="translate(213,24)"/>
<path d="M0 0 C2.31 0 4.62 0 7 0 C7 9.9 7 19.8 7 30 C11.95 30 16.9 30 22 30 C22 31.98 22 33.96 22 36 C14.74 36 7.48 36 0 36 C0 24.12 0 12.24 0 0 Z " fill="#151515" transform="translate(101,24)"/>
<path d="M0 0 C0.66 0.33 1.32 0.66 2 1 C2 1.66 2 2.32 2 3 C3.11375 2.649375 4.2275 2.29875 5.375 1.9375 C9 1 9 1 11 2 C13.57613743 5.65028661 13.33207168 9.64347269 13.3125 13.9375 C13.32861328 14.64068359 13.34472656 15.34386719 13.36132812 16.06835938 C13.36558263 20.60792148 12.68427815 23.35095685 10 27 C9.38125 27.928125 8.7625 28.85625 8.125 29.8125 C6 32 6 32 3.25 32.3125 C2.5075 32.209375 1.765 32.10625 1 32 C0.67 32.99 0.34 33.98 0 35 C-0.99 35 -1.98 35 -3 35 C-3 35.66 -3 36.32 -3 37 C-4.6037331 37.64690922 -6.20800306 38.29248764 -7.8125 38.9375 C-9.15248047 39.47697266 -9.15248047 39.47697266 -10.51953125 40.02734375 C-15.7568741 42.08104197 -15.7568741 42.08104197 -19 41 C-19 40.34 -19 39.68 -19 39 C-16.69 39 -14.38 39 -12 39 C-12 38.01 -12 37.02 -12 36 C-10.35 35.34 -8.7 34.68 -7 34 C-7 33.34 -7 32.68 -7 32 C-4.6640625 30.2734375 -4.6640625 30.2734375 -1.625 28.375 C-0.12839844 27.42753906 -0.12839844 27.42753906 1.3984375 26.4609375 C4 25 4 25 6 25 C5.67520483 20.45286763 5.22273602 17.06503552 3 13.0625 C0.66729768 8.81123453 0.22190867 4.79322722 0 0 Z " fill="#6304D8" transform="translate(64,27)"/>
<path d="M0 0 C2.86024142 2.19285176 3.90199822 5.06481326 4.875 8.4375 C5.214501 11.76316072 5.16150722 15.03667948 5.0625 18.375 C5.04219727 19.68694336 5.04219727 19.68694336 5.02148438 21.02539062 C4.98644109 23.16303086 4.93264541 25.30034984 4.875 27.4375 C3.225 27.4375 1.575 27.4375 -0.125 27.4375 C-0.18558594 26.19613281 -0.24617188 24.95476563 -0.30859375 23.67578125 C-0.39303623 22.03384423 -0.47768236 20.39191768 -0.5625 18.75 C-0.60181641 17.93337891 -0.64113281 17.11675781 -0.68164062 16.27539062 C-0.89398003 12.24094189 -1.16947922 8.38002691 -2.125 4.4375 C-7.53287385 5.53536425 -7.53287385 5.53536425 -11.125 9.4375 C-11.48851504 11.46292148 -11.48851504 11.46292148 -11.5390625 13.66796875 C-11.57773437 14.47041016 -11.61640625 15.27285156 -11.65625 16.09960938 C-11.6871875 16.93298828 -11.718125 17.76636719 -11.75 18.625 C-11.78867187 19.46998047 -11.82734375 20.31496094 -11.8671875 21.18554688 C-11.96136279 23.26917524 -12.04426675 25.35330753 -12.125 27.4375 C-13.775 27.4375 -15.425 27.4375 -17.125 27.4375 C-17.125 18.5275 -17.125 9.6175 -17.125 0.4375 C-14.45833333 0.4375 -11.79166667 0.4375 -9.125 0.4375 C-6.01829801 -1.115851 -3.31659396 -0.87792193 0 0 Z " fill="#383838" transform="translate(290.125,33.5625)"/>
<path d="M0 0 C1.32 0 2.64 0 4 0 C4.01981934 0.59538574 4.03963867 1.19077148 4.06005859 1.80419922 C4.15516126 4.49492153 4.26489842 7.18485148 4.375 9.875 C4.4059375 10.81214844 4.436875 11.74929687 4.46875 12.71484375 C4.50742187 13.61074219 4.54609375 14.50664063 4.5859375 15.4296875 C4.6173584 16.25710449 4.6487793 17.08452148 4.68115234 17.93701172 C4.82599137 20.21986085 4.82599137 20.21986085 7 22 C10.08347826 22.16681109 10.08347826 22.16681109 13 22 C14.61626656 16.94752447 15.34166823 12.3985816 15.625 7.0625 C15.68300781 6.03672852 15.68300781 6.03672852 15.7421875 4.99023438 C15.83522412 3.32720487 15.91863787 1.66364153 16 0 C17.65 0 19.3 0 21 0 C21 8.91 21 17.82 21 27 C18.33333333 27 15.66666667 27 13 27 C11.865625 27.20625 10.73125 27.4125 9.5625 27.625 C6.04943922 27.99479587 4.84232872 27.93278353 2 26 C2 25.34 2 24.68 2 24 C1.34 24 0.68 24 0 24 C0 16.08 0 8.16 0 0 Z " fill="#282828" transform="translate(315,34)"/>
<path d="M0 0 C8.63585746 17.27171492 8.63585746 17.27171492 7 27 C5.92844236 30.16408438 4.61576177 33.07864502 3 36 C2.34 36 1.68 36 1 36 C0.67 36.66 0.34 37.32 0 38 C0 36.68 0 35.36 0 34 C-0.66 33.67 -1.32 33.34 -2 33 C-7.60650379 26.27219545 -6.16148596 15.27166977 -6 7 C-5.67 7.66 -5.34 8.32 -5 9 C-3.68 9 -2.36 9 -1 9 C-0.67 6.03 -0.34 3.06 0 0 Z " fill="#C07AFB" transform="translate(83,24)"/>
<path d="M0 0 C0.33 0 0.66 0 1 0 C1.20190089 6.35987804 0.6277833 11.85221129 -1 18 C-0.34 18 0.32 18 1 18 C1 18.66 1 19.32 1 20 C1.66 20 2.32 20 3 20 C3 20.66 3 21.32 3 22 C3.70125 22.2475 4.4025 22.495 5.125 22.75 C8.37462636 24.16288102 11.07482472 26.0083913 14 28 C17.63843769 30.34737916 20.72552462 30.1644029 25 30 C25 30.66 25 31.32 25 32 C22.69 32 20.38 32 18 32 C18 32.66 18 33.32 18 34 C19.32 34.33 20.64 34.66 22 35 C18.08451018 36.51039779 15.33089035 35.44100338 11.4375 34.1875 C10.30183594 33.83042969 9.16617188 33.47335938 7.99609375 33.10546875 C3.1521418 31.31819574 1.54185229 29.31009736 -1 25 C-1.66 24.67 -2.32 24.34 -3 24 C-3 22.68 -3 21.36 -3 20 C-3.66 20 -4.32 20 -5 20 C-5 19.34 -5 18.68 -5 18 C-5.66 18 -6.32 18 -7 18 C-8.6875 16.3125 -8.6875 16.3125 -10 14 C-9.88178743 9.50792252 -7.56720466 6.56096131 -5 3 C-3.95550089 6.13349732 -4.06576355 6.98968256 -5 10 C-4.01 9.67 -3.02 9.34 -2 9 C-1.19436362 6.89415562 -1.19436362 6.89415562 -0.8125 4.4375 C-0.57466797 3.19806641 -0.57466797 3.19806641 -0.33203125 1.93359375 C-0.22246094 1.29550781 -0.11289062 0.65742187 0 0 Z " fill="#9663F1" transform="translate(27,34)"/>
<path d="M0 0 C1.65 0 3.3 0 5 0 C5 3.3 5 6.6 5 10 C6.98 10 8.96 10 11 10 C11 11.32 11 12.64 11 14 C9.02 14 7.04 14 5 14 C5.33 19.61 5.66 25.22 6 31 C8.475 31.99 8.475 31.99 11 33 C11 34.32 11 35.64 11 37 C4.375 37.25 4.375 37.25 1 35 C0.07811539 32.23434618 -0.11785222 30.61716298 -0.09765625 27.76953125 C-0.09443359 26.96708984 -0.09121094 26.16464844 -0.08789062 25.33789062 C-0.07951172 24.50451172 -0.07113281 23.67113281 -0.0625 22.8125 C-0.05798828 21.96751953 -0.05347656 21.12253906 -0.04882812 20.25195312 C-0.03705403 18.16793845 -0.0191189 16.08396023 0 14 C-1.32 14 -2.64 14 -4 14 C-4 12.68 -4 11.36 -4 10 C-2.68 10 -1.36 10 0 10 C0 6.7 0 3.4 0 0 Z " fill="#272727" transform="translate(300,24)"/>
<path d="M0 0 C2 0 2 0 4.375 1.875 C7.38848396 4.96825265 8.60657097 8.573737 10.0078125 12.59765625 C11.03583026 15.08675436 12.377811 16.86915852 14 19 C14 19.66 14 20.32 14 21 C14.804375 21.226875 15.60875 21.45375 16.4375 21.6875 C17.283125 22.120625 18.12875 22.55375 19 23 C19.66015625 25.58203125 19.66015625 25.58203125 20 28 C18.41579871 27.37720331 16.83267469 26.75166599 15.25 26.125 C14.36828125 25.77695313 13.4865625 25.42890625 12.578125 25.0703125 C10.3259752 24.1353291 8.16350541 23.12219206 6 22 C6 21.34 6 20.68 6 20 C5.38125 19.7525 4.7625 19.505 4.125 19.25 C1.53724008 17.72778828 0.94407342 16.83222025 0 14 C-0.03920815 12.00038436 -0.04443347 9.99950636 0 8 C-0.33 7.67 -0.66 7.34 -1 7 C-0.71269945 4.66055264 -0.38063221 2.3260857 0 0 Z " fill="#0635D2" transform="translate(8,46)"/>
<path d="M0 0 C16.02065111 -0.29222218 16.02065111 -0.29222218 22.640625 4.12109375 C21.68542969 4.04890625 20.73023438 3.97671875 19.74609375 3.90234375 C4.98074904 2.41713736 4.98074904 2.41713736 -9.359375 5.12109375 C-10.41125 5.10046875 -11.463125 5.07984375 -12.546875 5.05859375 C-15.34026473 4.8630558 -15.34026473 4.8630558 -17.171875 6.37109375 C-18.47707966 8.04720295 -18.47707966 8.04720295 -18.734375 10.05859375 C-19.66033387 13.11425803 -21.88747109 14.17888354 -24.359375 16.12109375 C-26.88915605 19.26151161 -27.50723025 21.37513923 -27.421875 25.30859375 C-27.40125 26.56671875 -27.380625 27.82484375 -27.359375 29.12109375 C-28.019375 29.78109375 -28.679375 30.44109375 -29.359375 31.12109375 C-30.019375 30.13109375 -30.679375 29.14109375 -31.359375 28.12109375 C-32.019375 28.45109375 -32.679375 28.78109375 -33.359375 29.12109375 C-33.05 28.27546875 -32.740625 27.42984375 -32.421875 26.55859375 C-31.24100668 23.19009115 -31.24100668 23.19009115 -31.109375 19.80859375 C-30.09323141 14.81255445 -27.66425223 10.98701115 -24.359375 7.12109375 C-23.699375 7.12109375 -23.039375 7.12109375 -22.359375 7.12109375 C-22.359375 6.46109375 -22.359375 5.80109375 -22.359375 5.12109375 C-14.68310547 1.67558655 -8.34698934 0.30087985 0 0 Z " fill="#9B55E8" transform="translate(44.359375,1.87890625)"/>
<path d="M0 0 C2 2 2 2 2 5 C4.1462026 4.85970581 6.29196218 4.71261836 8.4375 4.5625 C10.22994141 4.44068359 10.22994141 4.44068359 12.05859375 4.31640625 C14.88570244 4.32343886 14.88570244 4.32343886 16 3 C18.85877909 2.76298761 21.69883297 2.57780818 24.5625 2.4375 C25.36880859 2.39431641 26.17511719 2.35113281 27.00585938 2.30664062 C29.00368805 2.20024738 31.0018207 2.09959112 33 2 C34.1577506 5.47325181 34.06866652 8.36067448 34 12 C33.67 12 33.34 12 33 12 C32.34 9.69 31.68 7.38 31 5 C27.10498089 4.92509579 23.75539562 5.04307226 20 6 C18.66823863 6.12826695 17.33266114 6.22101395 15.99609375 6.28125 C14.88524414 6.33732422 14.88524414 6.33732422 13.75195312 6.39453125 C12.20508621 6.46502139 10.65821115 6.535333 9.11132812 6.60546875 C5.86925186 6.76940983 3.09599157 6.96800281 0 8 C-0.33 9.98 -0.66 11.96 -1 14 C-1.66 14 -2.32 14 -3 14 C-3.99 16.475 -3.99 16.475 -5 19 C-5.66 19 -6.32 19 -7 19 C-6.34 16.03 -5.68 13.06 -5 10 C-5.66 10 -6.32 10 -7 10 C-8.60725635 6.78548731 -8.05748185 3.56387464 -8 0 C-5.09288879 -1.4535556 -3.10402897 -0.71133997 0 0 Z " fill="#D04AF9" transform="translate(30,17)"/>
<path d="M0 0 C5.50176324 2.42724849 8.11168391 6.95458709 11 12 C12.00496852 15.01490557 12.10335303 17.04181692 12.0625 20.1875 C12.05347656 21.08855469 12.04445313 21.98960938 12.03515625 22.91796875 C12.02355469 23.60503906 12.01195313 24.29210937 12 25 C8.86650268 26.04449911 8.01031744 25.93423645 5 25 C4.80664062 23.89140625 4.61328125 22.7828125 4.4140625 21.640625 C4.15136511 20.17702524 3.88832633 18.71348673 3.625 17.25 C3.49867187 16.52039063 3.37234375 15.79078125 3.2421875 15.0390625 C2.5746354 11.36752595 1.78978827 8.27099236 0 5 C-0.125 2.25 -0.125 2.25 0 0 Z " fill="#D444EF" transform="translate(71,8)"/>
<path d="M0 0 C-1.17936218 5.3071298 -2.56514086 9.57882295 -7 13 C-9.75 13.25 -9.75 13.25 -12 13 C-12.33 13.99 -12.66 14.98 -13 16 C-13.99 16 -14.98 16 -16 16 C-16 16.66 -16 17.32 -16 18 C-17.6037331 18.64690922 -19.20800306 19.29248764 -20.8125 19.9375 C-21.70582031 20.29714844 -22.59914063 20.65679687 -23.51953125 21.02734375 C-28.7568741 23.08104197 -28.7568741 23.08104197 -32 22 C-32 21.34 -32 20.68 -32 20 C-29.69 20 -27.38 20 -25 20 C-25 19.01 -25 18.02 -25 17 C-23.35 16.34 -21.7 15.68 -20 15 C-20 14.34 -20 13.68 -20 13 C-17.6640625 11.2734375 -17.6640625 11.2734375 -14.625 9.375 C-13.62726562 8.74335937 -12.62953125 8.11171875 -11.6015625 7.4609375 C-9 6 -9 6 -7 6 C-6.67 4.35 -6.34 2.7 -6 1 C-3 0 -3 0 0 0 Z " fill="#7F37F9" transform="translate(77,46)"/>
<path d="M0 0 C0 1.65 0 3.3 0 5 C-0.94875 5.268125 -1.8975 5.53625 -2.875 5.8125 C-6.25267273 6.74986588 -6.25267273 6.74986588 -8 10 C-8.36351504 12.02542148 -8.36351504 12.02542148 -8.4140625 14.23046875 C-8.45273437 15.03291016 -8.49140625 15.83535156 -8.53125 16.66210938 C-8.5621875 17.49548828 -8.593125 18.32886719 -8.625 19.1875 C-8.66367187 20.03248047 -8.70234375 20.87746094 -8.7421875 21.74804688 C-8.83636279 23.83167524 -8.91926675 25.91580753 -9 28 C-10.32 28 -11.64 28 -13 28 C-13 19.09 -13 10.18 -13 1 C-10.525 1.495 -10.525 1.495 -8 2 C-4.77208445 -0.1519437 -3.71599191 -0.20086443 0 0 Z " fill="#202020" transform="translate(354,33)"/>
<path d="M0 0 C-0.50603992 2.16874252 -0.99983813 3.99967627 -2 6 C-2.66 6 -3.32 6 -4 6 C-4 6.66 -4 7.32 -4 8 C-4.66 8 -5.32 8 -6 8 C-6 8.66 -6 9.32 -6 10 C-6.66 10 -7.32 10 -8 10 C-8.33 10.66 -8.66 11.32 -9 12 C-9 11.34 -9 10.68 -9 10 C-11.33214148 8.79371992 -13.49642139 7.8345262 -16 7 C-16.33 6.34 -16.66 5.68 -17 5 C-18.12148438 5.32484375 -18.12148438 5.32484375 -19.265625 5.65625 C-20.74289063 6.07390625 -20.74289063 6.07390625 -22.25 6.5 C-23.22453125 6.7784375 -24.1990625 7.056875 -25.203125 7.34375 C-28 8 -28 8 -32 8 C-32 7.34 -32 6.68 -32 6 C-31.17757812 5.82984375 -30.35515625 5.6596875 -29.5078125 5.484375 C-24.01734981 4.29245007 -18.87686635 3.07892352 -13.75 0.75 C-8.76915841 -1.40564292 -5.27902284 -1.02174636 0 0 Z " fill="#1A64FE" transform="translate(77,65)"/>
<path d="M0 0 C0.33 0 0.66 0 1 0 C1.33 4.62 1.66 9.24 2 14 C2.99 14.33 3.98 14.66 5 15 C5.875 17.6875 5.875 17.6875 6 21 C4.20703368 23.13500912 2.32163572 24.38906909 0 26 C0 25.34 0 24.68 0 24 C-1.65 24 -3.3 24 -5 24 C-4.67 22.35 -4.34 20.7 -4 19 C-4.99 18.67 -5.98 18.34 -7 18 C-6.18957164 16.51969728 -5.37659652 15.04078858 -4.5625 13.5625 C-3.88380859 12.32693359 -3.88380859 12.32693359 -3.19140625 11.06640625 C-2 9 -2 9 -1 8 C-0.76924918 6.65252916 -0.58846937 5.29622435 -0.4375 3.9375 C-0.293125 2.638125 -0.14875 1.33875 0 0 Z " fill="#814CFE" transform="translate(77,41)"/>
<path d="M0 0 C5.75 -0.125 5.75 -0.125 8 1 C7.8984375 2.8671875 7.8984375 2.8671875 7 5 C4.1640625 6.1953125 4.1640625 6.1953125 0.625 7.125 C-3.12205916 8.13030855 -5.75824477 8.83882985 -9 11 C-12.84007977 12.02094745 -16.59909859 12.22524087 -20.5625 12.3125 C-21.67753906 12.34988281 -22.79257812 12.38726562 -23.94140625 12.42578125 C-27.60761507 11.91541502 -28.71695071 10.830088 -31 8 C-29 7 -29 7 -27.01171875 7.59375 C-26.24472656 7.8928125 -25.47773437 8.191875 -24.6875 8.5 C-17.99989053 10.8071721 -14.16817888 8.75841725 -7.98828125 5.83984375 C-6 5 -6 5 -4 5 C-4 4.34 -4 3.68 -4 3 C-3.01 2.67 -2.02 2.34 -1 2 C-0.67 1.34 -0.34 0.68 0 0 Z " fill="#4B34F7" transform="translate(65,59)"/>
<path d="M0 0 C3.04854904 2.48741501 3.60648591 4.61274286 4.25 8.4375 C4.50523438 9.85869141 4.50523438 9.85869141 4.765625 11.30859375 C4.98916046 13.87552599 4.80225346 15.57604847 4 18 C3.34 17.01 2.68 16.02 2 15 C-0.31 15.33 -2.62 15.66 -5 16 C-7.29633824 12.55549263 -7.54016485 10.06187717 -8 6 C-7.05125 5.566875 -6.1025 5.13375 -5.125 4.6875 C-1.79958063 3.20697799 -1.79958063 3.20697799 0 0 Z " fill="#D102F8" transform="translate(71,14)"/>
<path d="M0 0 C0.66 0 1.32 0 2 0 C2.51778074 7.69479711 1.7505733 13.21882953 -2 20 C-2.66 20 -3.32 20 -4 20 C-4.33 20.66 -4.66 21.32 -5 22 C-5 20.68 -5 19.36 -5 18 C-5.66 17.67 -6.32 17.34 -7 17 C-10.61295394 12.55328746 -10.32020799 8.44353586 -10 3 C-9.67 4.32 -9.34 5.64 -9 7 C-8.01 6.67 -7.02 6.34 -6 6 C-5.34 7.32 -4.68 8.64 -4 10 C-1.2027092 7.93243723 -0.97307727 6.85559629 -0.3125 3.3125 C-0.209375 2.219375 -0.10625 1.12625 0 0 Z " fill="#AC8BF0" transform="translate(88,40)"/>
<path d="M0 0 C0.45375 0.495 0.9075 0.99 1.375 1.5 C2.87635519 3.22609337 2.87635519 3.22609337 5 3 C7.66077956 12.51372259 7.66077956 12.51372259 5.625 17.125 C5.08875 18.07375 4.5525 19.0225 4 20 C3.566875 19.401875 3.13375 18.80375 2.6875 18.1875 C1.15035532 16.02531585 1.15035532 16.02531585 -0.5625 14.71875 C-2.57314694 12.31471562 -2.50559057 10.40496036 -2.6875 7.3125 C-2.75324219 6.31863281 -2.81898437 5.32476562 -2.88671875 4.30078125 C-2.92410156 3.54152344 -2.96148437 2.78226563 -3 2 C-2.01 1.34 -1.02 0.68 0 0 Z " fill="#813AF7" transform="translate(13,29)"/>
<path d="M0 0 C0.66 0 1.32 0 2 0 C2.13020833 1.98567708 2.26041667 3.97135417 2.390625 5.95703125 C2.8285108 8.19218143 2.8285108 8.19218143 5.03125 9.4375 C7 11 7 11 7.390625 13.48046875 C7.32101563 14.82044922 7.32101563 14.82044922 7.25 16.1875 C7.21390625 17.08855469 7.1778125 17.98960938 7.140625 18.91796875 C7.07101563 19.94857422 7.07101563 19.94857422 7 21 C6.71382812 20.37351562 6.42765625 19.74703125 6.1328125 19.1015625 C4.8035552 16.63556102 3.23132478 15.63630484 1 14 C1 13.34 1 12.68 1 12 C0.34 12 -0.32 12 -1 12 C-1.33 14.31 -1.66 16.62 -2 19 C-1.34 19.33 -0.68 19.66 0 20 C-0.33 21.65 -0.66 23.3 -1 25 C-3.69568215 20.32748427 -4.28938156 16.43963691 -3.22265625 11.1328125 C-2.84838994 9.79333308 -2.46142815 8.45734257 -2.0625 7.125 C-1.86720703 6.43664063 -1.67191406 5.74828125 -1.47070312 5.0390625 C-0.99154926 3.35618062 -0.49730601 1.6776074 0 0 Z " fill="#445CE0" transform="translate(9,34)"/>
<path d="M0 0 C-2 2 -2 2 -5.3125 2.8125 C-9.50933278 4.16402242 -11.37689283 5.47519973 -14 9 C-13.95020416 11.760165 -13.95020416 11.760165 -13 14 C-15.9375 12.875 -15.9375 12.875 -19 11 C-20.125 8.0625 -20.125 8.0625 -20 5 C-18.5 2.625 -18.5 2.625 -16 1 C-12.5625 0.875 -12.5625 0.875 -9 1 C-3.3408324 -1.23734533 -3.3408324 -1.23734533 0 0 Z " fill="#C902F3" transform="translate(45,5)"/>
<path d="M0 0 C0.721875 0.144375 1.44375 0.28875 2.1875 0.4375 C3.5796875 0.7159375 3.5796875 0.7159375 5 1 C6.66666667 1.33333333 8.33333333 1.66666667 10 2 C10 2.66 10 3.32 10 4 C10.99 4 11.98 4 13 4 C13 4.66 13 5.32 13 6 C13.804375 6.226875 14.60875 6.45375 15.4375 6.6875 C16.283125 7.120625 17.12875 7.55375 18 8 C18.66015625 10.58203125 18.66015625 10.58203125 19 13 C17.41579871 12.37720331 15.83267469 11.75166599 14.25 11.125 C13.36828125 10.77695313 12.4865625 10.42890625 11.578125 10.0703125 C9.3259752 9.1353291 7.16350541 8.12219206 5 7 C5 6.34 5 5.68 5 5 C4.360625 4.731875 3.72125 4.46375 3.0625 4.1875 C1 3 1 3 0 0 Z " fill="#1E47C8" transform="translate(9,61)"/>
<path d="M0 0 C0.66 1.32 1.32 2.64 2 4 C2.556875 4.928125 2.556875 4.928125 3.125 5.875 C4.29682942 8.72087145 4.25953118 10.95050858 4 14 C3.01 15.485 3.01 15.485 2 17 C1.01 16.67 0.02 16.34 -1 16 C-1 15.34 -1 14.68 -1 14 C-1.66 14 -2.32 14 -3 14 C-3.66 15.32 -4.32 16.64 -5 18 C-6 17 -6 17 -6.09765625 14.71484375 C-6.08605469 13.79832031 -6.07445313 12.88179687 -6.0625 11.9375 C-6.05347656 11.01839844 -6.04445313 10.09929688 -6.03515625 9.15234375 C-6.02355469 8.44207031 -6.01195313 7.73179688 -6 7 C-5.67 7.66 -5.34 8.32 -5 9 C-3.68 9 -2.36 9 -1 9 C-0.67 6.03 -0.34 3.06 0 0 Z " fill="#D366FE" transform="translate(83,24)"/>
<path d="M0 0 C-0.95519531 -0.0721875 -1.91039062 -0.144375 -2.89453125 -0.21875 C-16.17679914 -1.75388805 -16.17679914 -1.75388805 -29.125 0.0625 C-33.22132828 1.39825922 -36.8079016 0.68936729 -41 0 C-31.0666087 -6.62226086 -9.94080131 -6.62720088 0 0 Z " fill="#CF46E4" transform="translate(67,6)"/>
<path d="M0 0 C2.62651431 0.28119857 5.25069335 0.57443838 7.875 0.875 C8.62136719 0.95363281 9.36773437 1.03226563 10.13671875 1.11328125 C15.7734375 1.7734375 15.7734375 1.7734375 18 4 C15.82052348 6.17947652 10.44108801 5.45337729 7.37109375 5.60546875 C3.89055723 5.4970552 3.89055723 5.4970552 1 7 C-1.18639453 7.07258946 -3.37500389 7.08373783 -5.5625 7.0625 C-7.35880859 7.04896484 -7.35880859 7.04896484 -9.19140625 7.03515625 C-10.11824219 7.02355469 -11.04507813 7.01195312 -12 7 C-12 6.34 -12 5.68 -12 5 C-8.37 5 -4.74 5 -1 5 C-0.67 3.35 -0.34 1.7 0 0 Z " fill="#C304EF" transform="translate(44,15)"/>
<path d="M0 0 C0.99 0.495 0.99 0.495 2 1 C2 1.66 2 2.32 2 3 C3.11375 2.649375 4.2275 2.29875 5.375 1.9375 C9 1 9 1 11 2 C12.53712084 4.34613181 13.09239476 5.44563145 12.625 8.25 C12.41875 8.8275 12.2125 9.405 12 10 C11.67 9.01 11.34 8.02 11 7 C7.99152582 5.77479736 7.99152582 5.77479736 5 5 C4.67 5.99 4.34 6.98 4 8 C4.474375 8.928125 4.94875 9.85625 5.4375 10.8125 C7.10775576 14.21982175 7.26671005 16.26605924 7 20 C1.87501818 13.89883116 0.50855769 7.73358411 0 0 Z " fill="#910BDF" transform="translate(64,27)"/>
<path d="M0 0 C6.03280791 1.6166348 9.950809 3.16709462 14 8 C8.18363206 10.37402773 8.18363206 10.37402773 5.046875 9.3828125 C1.60343643 7.51641092 -0.78213164 5.78892379 -2 2 C-1.34 1.67 -0.68 1.34 0 1 C0 0.67 0 0.34 0 0 Z " fill="#4E76FC" transform="translate(22,61)"/>
<path d="M0 0 C0.33 2.31 0.66 4.62 1 7 C0.34 7 -0.32 7 -1 7 C-1 7.66 -1 8.32 -1 9 C0.32 9.66 1.64 10.32 3 11 C3 11.66 3 12.32 3 13 C1.68 12.67 0.36 12.34 -1 12 C-1 11.34 -1 10.68 -1 10 C-1.8971875 9.566875 -1.8971875 9.566875 -2.8125 9.125 C-5 8 -5 8 -8 6 C-8.6875 3.375 -8.6875 3.375 -9 1 C-5.846632 0.29925156 -3.27275026 0 0 0 Z " fill="#1E66EC" transform="translate(36,69)"/>
<path d="M0 0 C1.65 0.33 3.3 0.66 5 1 C5 1.66 5 2.32 5 3 C5.66 3.33 6.32 3.66 7 4 C6.01 4.33 5.02 4.66 4 5 C3.67 6.98 3.34 8.96 3 11 C2.34 11 1.68 11 1 11 C0.34 12.65 -0.32 14.3 -1 16 C-1.66 16 -2.32 16 -3 16 C-2.34 13.03 -1.68 10.06 -1 7 C-1.66 7 -2.32 7 -3 7 C-3 6.34 -3 5.68 -3 5 C-2.34 4.67 -1.68 4.34 -1 4 C-0.34786708 1.97536745 -0.34786708 1.97536745 0 0 Z " fill="#CA52FA" transform="translate(26,20)"/>
<path d="M0 0 C0.54527344 0.2165625 1.09054688 0.433125 1.65234375 0.65625 C7.3594197 2.76347804 11.9262767 3.28922492 18 3 C18 3.66 18 4.32 18 5 C15.69 5 13.38 5 11 5 C11 5.66 11 6.32 11 7 C12.32 7.33 13.64 7.66 15 8 C11.29010007 9.36587765 8.96971442 8.6259722 5.3125 7.3125 C4.33925781 6.97863281 3.36601563 6.64476563 2.36328125 6.30078125 C0 5 0 5 -0.89453125 2.91796875 C-0.92933594 2.28503906 -0.96414062 1.65210938 -1 1 C-0.67 0.67 -0.34 0.34 0 0 Z " fill="#9841FD" transform="translate(34,61)"/>
<path d="M0 0 C1.32 0 2.64 0 4 0 C4.33 2.97 4.66 5.94 5 9 C4.01 8.01 3.02 7.02 2 6 C-1.64541845 6.23477199 -1.64541845 6.23477199 -5 7 C-5.66 6.01 -6.32 5.02 -7 4 C-6.67 3.01 -6.34 2.02 -6 1 C-6 1.66 -6 2.32 -6 3 C-2.75016865 1.91215032 -2.75016865 1.91215032 0 0 Z " fill="#A704EC" transform="translate(71,23)"/>
<path d="M0 0 C0.66 0 1.32 0 2 0 C1.69381595 3.67420866 1.24228216 4.78135513 -1.5625 7.3125 C-2.366875 7.869375 -3.17125 8.42625 -4 9 C-4 8.34 -4 7.68 -4 7 C-5.65 7 -7.3 7 -9 7 C-8.625 5.0625 -8.625 5.0625 -8 3 C-5.29120665 1.64560332 -2.99066732 1.93498549 0 2 C0 1.34 0 0.68 0 0 Z " fill="#606BF9" transform="translate(81,58)"/>
<path d="M0 0 C2 2 2 2 2.125 5.125 C2.08375 6.07375 2.0425 7.0225 2 8 C2.99 8 3.98 8 5 8 C5.1953125 14.0546875 5.1953125 14.0546875 5 16 C4.34 16.66 3.68 17.32 3 18 C1.23537317 14.91190305 1 13.76687864 1 10 C0.34 9.67 -0.32 9.34 -1 9 C-1.09765625 2.84765625 -1.09765625 2.84765625 -1 1 C-0.67 0.67 -0.34 0.34 0 0 Z " fill="#9D37FD" transform="translate(17,22)"/>
<path d="M0 0 C3.57104439 1.87949705 5.54744301 3.17053157 7 7 C6.01 7 5.02 7 4 7 C4.16757813 7.68707031 4.33515625 8.37414063 4.5078125 9.08203125 C4.71148437 9.98308594 4.91515625 10.88414063 5.125 11.8125 C5.33382812 12.70582031 5.54265625 13.59914063 5.7578125 14.51953125 C6 17 6 17 4 20 C0.74031891 6.3667426 0.74031891 6.3667426 0 0 Z " fill="#E541F5" transform="translate(71,8)"/>
<path d="M0 0 C1.37245106 2.74490212 0.93580311 4.12060581 0 7 C-1.875 8.0625 -1.875 8.0625 -4 9 C-5.01241685 10.32392972 -6.01439389 11.65599167 -7 13 C-7.66 13 -8.32 13 -9 13 C-9.33 13.66 -9.66 14.32 -10 15 C-9.32359407 10.77246293 -7.2825056 7.55802344 -5 4 C-4.01 3.67 -3.02 3.34 -2 3 C-2 2.34 -2 1.68 -2 1 C-1.34 0.67 -0.68 0.34 0 0 Z " fill="#B066D8" transform="translate(24,6)"/>
<path d="M0 0 C1.65 0 3.3 0 5 0 C7.09230769 4.43076923 7.09230769 4.43076923 6.625 7.3125 C6.41875 7.869375 6.2125 8.42625 6 9 C5.34 8.67 4.68 8.34 4 8 C3.67 9.32 3.34 10.64 3 12 C2.49440092 10.56445975 1.9957251 9.1264798 1.5 7.6875 C1.2215625 6.88699219 0.943125 6.08648437 0.65625 5.26171875 C0 3 0 3 0 0 Z " fill="#414141" transform="translate(213,24)"/>
<path d="M0 0 C1.22589844 0.15275391 1.22589844 0.15275391 2.4765625 0.30859375 C3.41628906 0.43427734 3.41628906 0.43427734 4.375 0.5625 C3.86896008 2.73124252 3.37516187 4.56217627 2.375 6.5625 C1.715 6.5625 1.055 6.5625 0.375 6.5625 C0.375 7.2225 0.375 7.8825 0.375 8.5625 C-0.285 8.5625 -0.945 8.5625 -1.625 8.5625 C-1.955 7.2425 -2.285 5.9225 -2.625 4.5625 C-1.305 4.8925 0.015 5.2225 1.375 5.5625 C1.375 4.5725 1.375 3.5825 1.375 2.5625 C0.1684375 2.8409375 0.1684375 2.8409375 -1.0625 3.125 C-1.908125 3.269375 -2.75375 3.41375 -3.625 3.5625 C-3.955 3.2325 -4.285 2.9025 -4.625 2.5625 C-6.29117115 2.52186168 -7.95888095 2.519779 -9.625 2.5625 C-5.76762989 -0.00908007 -4.50963704 -0.57981048 0 0 Z " fill="#405EFC" transform="translate(72.625,64.4375)"/>
<path d="M0 0 C0.66 0 1.32 0 2 0 C2 1.65 2 3.3 2 5 C1.38125 5.061875 0.7625 5.12375 0.125 5.1875 C-0.57625 5.455625 -1.2775 5.72375 -2 6 C-2.2475 6.78375 -2.495 7.5675 -2.75 8.375 C-4.24629119 11.51721151 -4.96660057 11.65442021 -8.125 12.8125 C-9.41091207 13.22664606 -10.70113583 13.62846444 -12 14 C-12.66 13.34 -13.32 12.68 -14 12 C-12.21190303 10.82786955 -10.41940875 9.66244474 -8.625 8.5 C-7.62726562 7.8503125 -6.62953125 7.200625 -5.6015625 6.53125 C-3 5 -3 5 -1 5 C-0.67 3.35 -0.34 1.7 0 0 Z " fill="#8654D9" transform="translate(71,47)"/>
<path d="M0 0 C0.66 0 1.32 0 2 0 C2.0825 1.258125 2.165 2.51625 2.25 3.8125 C2.66557143 7.33811212 2.66557143 7.33811212 5.0625 10 C5.701875 10.33 6.34125 10.66 7 11 C6.67 11.99 6.34 12.98 6 14 C3.53199953 12.84826645 1.95216435 11.95216435 0 10 C-0.66 10 -1.32 10 -2 10 C-1.46274105 6.62294375 -0.88935377 3.303314 0 0 Z " fill="#5C55E3" transform="translate(9,34)"/>
<path d="M0 0 C-0.4375 2.8125 -0.4375 2.8125 -2 6 C-4.86956181 7.55618544 -7.77796404 8.48883922 -11 9 C-11.99 8.67 -12.98 8.34 -14 8 C-14 7.34 -14 6.68 -14 6 C-11.69 6 -9.38 6 -7 6 C-7 5.01 -7 4.02 -7 3 C-2.77777778 0 -2.77777778 0 0 0 Z " fill="#732EDE" transform="translate(59,60)"/>
<path d="M0 0 C0.33 1.32 0.66 2.64 1 4 C1.99 3.67 2.98 3.34 4 3 C5 5 6 7 7 9 C6.01 10.485 6.01 10.485 5 12 C3.68 12 2.36 12 1 12 C0.03929566 9.11788698 -0.10581883 7.30149956 -0.0625 4.3125 C-0.05347656 3.50425781 -0.04445313 2.69601563 -0.03515625 1.86328125 C-0.02355469 1.24839844 -0.01195313 0.63351563 0 0 Z " fill="#9D6CFE" transform="translate(78,43)"/>
<path d="M0 0 C1.98 0.99 1.98 0.99 4 2 C4.609375 4.1640625 4.609375 4.1640625 4.75 6.625 C4.80671875 7.44226563 4.8634375 8.25953125 4.921875 9.1015625 C4.94765625 9.72804688 4.9734375 10.35453125 5 11 C5.99 11 6.98 11 8 11 C8 11.99 8 12.98 8 14 C6.35 13.67 4.7 13.34 3 13 C2.01 8.71 1.02 4.42 0 0 Z " fill="#D910F4" transform="translate(74,13)"/>
<path d="M0 0 C5.75 -0.125 5.75 -0.125 8 1 C7.67 2.32 7.34 3.64 7 5 C6.13375 4.79375 5.2675 4.5875 4.375 4.375 C0.63571398 3.95952378 -1.54942141 4.60333724 -5 6 C-4.67 5.01 -4.34 4.02 -4 3 C-3.01 2.67 -2.02 2.34 -1 2 C-0.67 1.34 -0.34 0.68 0 0 Z " fill="#6A3BFC" transform="translate(65,59)"/>
<path d="M0 0 C0 0.99 0 1.98 0 3 C2.31 3 4.62 3 7 3 C3.92970153 4.81426728 2.02714249 5.20901169 -1.5 4.75 C-2.2528125 4.66234375 -3.005625 4.5746875 -3.78125 4.484375 C-6.1101584 3.97595134 -7.92229716 3.15218067 -10 2 C-10 1.67 -10 1.34 -10 1 C-3.375 0 -3.375 0 0 0 Z " fill="#4277EB" transform="translate(49,81)"/>
<path d="M0 0 C0.33 0 0.66 0 1 0 C1 4.62 1 9.24 1 14 C0.01 14 -0.98 14 -2 14 C-2.05389087 12.04196493 -2.09274217 10.08351091 -2.125 8.125 C-2.14820313 7.03445312 -2.17140625 5.94390625 -2.1953125 4.8203125 C-2 2 -2 2 0 0 Z " fill="#030303" transform="translate(343,46)"/>
<path d="M0 0 C1.1577506 3.47325181 1.06866652 6.36067448 1 10 C0.67 10 0.34 10 0 10 C-0.66 7.69 -1.32 5.38 -2 3 C-7.28 3 -12.56 3 -18 3 C-17.67 2.34 -17.34 1.68 -17 1 C-14.49166735 0.68608824 -12.08073104 0.48661135 -9.5625 0.375 C-8.52125977 0.31699219 -8.52125977 0.31699219 -7.45898438 0.2578125 C-4.971879 0.12298394 -2.49118145 0 0 0 Z " fill="#B43BD7" transform="translate(63,19)"/>
<path d="M0 0 C1.134375 0.020625 2.26875 0.04125 3.4375 0.0625 C0.97200638 3.07040221 -1.02116699 3.60503264 -4.8125 4.1875 C-6.26849609 4.41953125 -6.26849609 4.41953125 -7.75390625 4.65625 C-9.14416016 4.85734375 -9.14416016 4.85734375 -10.5625 5.0625 C-11.68978516 5.23265625 -11.68978516 5.23265625 -12.83984375 5.40625 C-14.41223548 5.6377678 -15.9870973 5.85244631 -17.5625 6.0625 C-17.5625 5.4025 -17.5625 4.7425 -17.5625 4.0625 C-16.63566406 3.85753906 -15.70882812 3.65257813 -14.75390625 3.44140625 C-13.55636719 3.17199219 -12.35882813 2.90257813 -11.125 2.625 C-9.93003906 2.35816406 -8.73507813 2.09132813 -7.50390625 1.81640625 C-0.4477459 0.00785519 -0.4477459 0.00785519 0 0 Z " fill="#1C46FA" transform="translate(62.5625,66.9375)"/>
<path d="M0 0 C0.66 0 1.32 0 2 0 C2 0.99 2 1.98 2 3 C2.99 3.33 3.98 3.66 5 4 C4.67 5.32 4.34 6.64 4 8 C1.36 8.33 -1.28 8.66 -4 9 C-3.71125 8.43410156 -3.4225 7.86820313 -3.125 7.28515625 C-2.75375 6.55167969 -2.3825 5.81820312 -2 5.0625 C-1.62875 4.33160156 -1.2575 3.60070313 -0.875 2.84765625 C0.07133403 1.19009928 0.07133403 1.19009928 0 0 Z " fill="#8361FC" transform="translate(77,52)"/>
<path d="M0 0 C0.33 0.66 0.66 1.32 1 2 C2.65 2 4.3 2 6 2 C6.33 3.32 6.66 4.64 7 6 C4 6 4 6 2 5 C2 5.66 2 6.32 2 7 C1.01 6.67 0.02 6.34 -1 6 C-1.33 4.35 -1.66 2.7 -2 1 C-1.34 0.67 -0.68 0.34 0 0 Z " fill="#7601E0" transform="translate(69,31)"/>
<path d="M0 0 C2.64 0 5.28 0 8 0 C8 0.66 8 1.32 8 2 C9.32 2.33 10.64 2.66 12 3 C11.01 3.99 10.02 4.98 9 6 C5.59687262 4.94124926 2.98646769 3.99097846 0 2 C0 1.34 0 0.68 0 0 Z " fill="#3173FC" transform="translate(22,65)"/>
<path d="M0 0 C1.5 1.375 1.5 1.375 3 3 C3 3.66 3 4.32 3 5 C3.99 5 4.98 5 6 5 C6 6.98 6 8.96 6 11 C5.34 11 4.68 11 4 11 C4 10.34 4 9.68 4 9 C3.34 9 2.68 9 2 9 C0.3125 7.3125 0.3125 7.3125 -1 5 C-0.6875 2.25 -0.6875 2.25 0 0 Z " fill="#9E6BFC" transform="translate(18,43)"/>
<path d="M0 0 C0.66 1.32 1.32 2.64 2 4 C2.37125 4.61875 2.7425 5.2375 3.125 5.875 C4.26915841 8.65367042 4.13516968 11.02626695 4 14 C2.68 13.34 1.36 12.68 0 12 C0 8.04 0 4.08 0 0 Z " fill="#C75FF1" transform="translate(83,24)"/>
<path d="M0 0 C0.99 0 1.98 0 3 0 C3 1.32 3 2.64 3 4 C-0.30134918 6.56771603 -1.72874492 7 -6 7 C-6.66 5.35 -7.32 3.7 -8 2 C-7.34 2 -6.68 2 -6 2 C-6 2.66 -6 3.32 -6 4 C-3.53199953 2.84826645 -1.95216435 1.95216435 0 0 Z " fill="#C001F0" transform="translate(71,19)"/>
<path d="M0 0 C1.4540625 0.0309375 1.4540625 0.0309375 2.9375 0.0625 C2.6075 1.7125 2.2775 3.3625 1.9375 5.0625 C0.6175 5.3925 -0.7025 5.7225 -2.0625 6.0625 C-2.7225 4.4125 -3.3825 2.7625 -4.0625 1.0625 C-3.0625 0.0625 -3.0625 0.0625 0 0 Z " fill="#4A4A4A" transform="translate(389.0625,55.9375)"/>
<path d="M0 0 C1.04449911 3.13349732 0.93423645 3.98968256 0 7 C0.99 7.33 1.98 7.66 3 8 C2.67 9.32 2.34 10.64 2 12 C-1 11 -1 11 -3 8 C-2.65358161 4.53581611 -1.96713413 2.95070119 0 0 Z " fill="#A653FB" transform="translate(22,37)"/>
<path d="M0 0 C0.99 0.33 1.98 0.66 3 1 C3.74259349 3.31029085 4.411438 5.645752 5 8 C5.33 8.33 5.66 8.66 6 9 C6.04080783 10.99958364 6.04254356 13.00045254 6 15 C2.22279206 10.50332388 0 5.9028782 0 0 Z " fill="#9458DB" transform="translate(65,32)"/>
<path d="M0 0 C0 0.66 0 1.32 0 2 C-1.32 2.33 -2.64 2.66 -4 3 C-4 5.64 -4 8.28 -4 11 C-4.66 11 -5.32 11 -6 11 C-6.66 10.34 -7.32 9.68 -8 9 C-7.82837291 5.73908537 -7.19245443 4.23736046 -5.125 1.6875 C-3 0 -3 0 0 0 Z " fill="#BC3DFC" transform="translate(26,14)"/>
<path d="M0 0 C1.485 0.99 1.485 0.99 3 2 C3 2.66 3 3.32 3 4 C3.66 4 4.32 4 5 4 C5 4.66 5 5.32 5 6 C5.66 6.33 6.32 6.66 7 7 C6 8 6 8 3.5 8.125 C1 8 1 8 0 7 C-0.04092937 4.66702567 -0.04241723 2.33294775 0 0 Z " fill="#8884FE" transform="translate(17,48)"/>
<path d="M0 0 C1.32 0.33 2.64 0.66 4 1 C3.2884375 1.61875 3.2884375 1.61875 2.5625 2.25 C0.85524097 3.86146339 0.85524097 3.86146339 0.625 5.9375 C-0.31115542 9.02681289 -2.45358055 10.13676626 -5 12 C-5.66 12.66 -6.32 13.32 -7 14 C-6.75 11.125 -6.75 11.125 -6 8 C-4.67532254 7.3162955 -3.34136367 6.65035814 -2 6 C-0.70768358 2.95800528 -0.70768358 2.95800528 0 0 Z " fill="#981ED7" transform="translate(25,6)"/>
<path d="M0 0 C-1.125 2.4375 -1.125 2.4375 -3 5 C-6.1875 5.8125 -6.1875 5.8125 -9 6 C-7.01260984 0.46369883 -5.82303895 -0.15323787 0 0 Z " fill="#A801EA" transform="translate(34,6)"/>
<path d="M0 0 C0.4125 0.639375 0.825 1.27875 1.25 1.9375 C3.17810487 4.20990931 4.11424181 4.60196439 7 5 C6.67 6.32 6.34 7.64 6 9 C3.03 8.505 3.03 8.505 0 8 C0 5.36 0 2.72 0 0 Z " fill="#DA4DFD" transform="translate(76,25)"/>
<path d="M0 0 C0.33 0 0.66 0 1 0 C0.67 3.96 0.34 7.92 0 12 C-0.99 12.33 -1.98 12.66 -3 13 C-2.88490339 11.58249437 -2.75746342 10.16598831 -2.625 8.75 C-2.55539063 7.96109375 -2.48578125 7.1721875 -2.4140625 6.359375 C-1.98492887 3.914123 -1.21399362 2.15163097 0 0 Z " fill="#A92FF1" transform="translate(27,29)"/>
<path d="M0 0 C1.65 0.33 3.3 0.66 5 1 C5 2.32 5 3.64 5 5 C4.34 5 3.68 5 3 5 C2.67 5.66 2.34 6.32 2 7 C2 6.34 2 5.68 2 5 C0.68 4.34 -0.64 3.68 -2 3 C-1.34 2.01 -0.68 1.02 0 0 Z " fill="#2064F3" transform="translate(66,70)"/>
<path d="M0 0 C1.81495662 0.44850658 3.62693134 0.90909571 5.4375 1.375 C6.44683594 1.63023438 7.45617188 1.88546875 8.49609375 2.1484375 C11 3 11 3 12 5 C4.63366337 5.49108911 4.63366337 5.49108911 1.5 3.0625 C0 1 0 1 0 0 Z " fill="#594CFC" transform="translate(34,66)"/>
<path d="M0 0 C2 2.66666667 4 5.33333333 6 8 C5.34 9.32 4.68 10.64 4 12 C3.731875 11.401875 3.46375 10.80375 3.1875 10.1875 C2.13952691 7.94430723 2.13952691 7.94430723 0.3125 6.5625 C-0.120625 6.046875 -0.55375 5.53125 -1 5 C-0.6875 2.3125 -0.6875 2.3125 0 0 Z " fill="#5D42F2" transform="translate(12,37)"/>
<path d="M0 0 C0.66 0.33 1.32 0.66 2 1 C2 3.31 2 5.62 2 8 C1.34 7.34 0.68 6.68 0 6 C-0.66 6.99 -1.32 7.98 -2 9 C-2.33 6.69 -2.66 4.38 -3 2 C-2.01 1.34 -1.02 0.68 0 0 Z " fill="#804BEF" transform="translate(13,29)"/>
<path d="M0 0 C0 0.99 0 1.98 0 3 C-1.42578125 4.421875 -1.42578125 4.421875 -3.3125 5.75 C-3.92738281 6.19859375 -4.54226562 6.6471875 -5.17578125 7.109375 C-7 8 -7 8 -10 7 C-9.34 7 -8.68 7 -8 7 C-8 6.01 -8 5.02 -8 4 C-6.68 4 -5.36 4 -4 4 C-4.33 3.01 -4.66 2.02 -5 1 C-2 0 -2 0 0 0 Z " fill="#4981EA" transform="translate(67,76)"/>
<path d="M0 0 C2.97 0 5.94 0 9 0 C9.33 1.65 9.66 3.3 10 5 C5.05 3.02 5.05 3.02 0 1 C0 0.67 0 0.34 0 0 Z " fill="#3860C8" transform="translate(18,69)"/>
<path d="M0 0 C3.63 1.98 7.26 3.96 11 6 C9 7 9 7 6.125 6.125 C5.09375 5.75375 4.0625 5.3825 3 5 C1.67088318 4.65023242 0.33917261 4.30903983 -1 4 C-0.67 2.68 -0.34 1.36 0 0 Z " fill="#BF75E8" transform="translate(34,58)"/>
<path d="M0 0 C0.66 0 1.32 0 2 0 C1.64950425 3.24208567 1.43778819 4.61527704 -1.0625 6.8125 C-1.701875 7.204375 -2.34125 7.59625 -3 8 C-4 5 -4 5 -3 2 C-2.01 2 -1.02 2 0 2 C0 1.34 0 0.68 0 0 Z " fill="#757BEE" transform="translate(81,58)"/>
<path d="M0 0 C0.99 0 1.98 0 3 0 C2.40072174 3.35595828 1.15377564 5.37801226 -1 8 C-2.32 7.67 -3.64 7.34 -5 7 C-3.68 6.67 -2.36 6.34 -1 6 C-1.020625 5.195625 -1.04125 4.39125 -1.0625 3.5625 C-1 1 -1 1 0 0 Z " fill="#7027E4" transform="translate(74,46)"/>
<path d="M0 0 C0 1.65 0 3.3 0 5 C-1.98 5.33 -3.96 5.66 -6 6 C-5.6875 4.125 -5.6875 4.125 -5 2 C-2 0 -2 0 0 0 Z " fill="#383838" transform="translate(354,33)"/>
<path d="M0 0 C1.65 0 3.3 0 5 0 C5.66 2.31 6.32 4.62 7 7 C4.0625 5.75 4.0625 5.75 1 4 C0.125 1.8125 0.125 1.8125 0 0 Z " fill="#C818FC" transform="translate(25,12)"/>
<path d="M0 0 C0.99 0.33 1.98 0.66 3 1 C3 2.65 3 4.3 3 6 C2.34 6 1.68 6 1 6 C0.67 6.66 0.34 7.32 0 8 C0 6.68 0 5.36 0 4 C-0.66 3.67 -1.32 3.34 -2 3 C-2 2.34 -2 1.68 -2 1 C-1.34 0.67 -0.68 0.34 0 0 Z " fill="#9587F2" transform="translate(83,54)"/>
<path d="M0 0 C-0.50603992 2.16874252 -0.99983813 3.99967627 -2 6 C-2.66 6 -3.32 6 -4 6 C-4 6.66 -4 7.32 -4 8 C-4.66 8 -5.32 8 -6 8 C-6.33 6.68 -6.66 5.36 -7 4 C-5.68 4.33 -4.36 4.66 -3 5 C-3.33 3.68 -3.66 2.36 -4 1 C-2 0 -2 0 0 0 Z " fill="#3D6AE3" transform="translate(77,65)"/>
<path d="M0 0 C0.66 1.32 1.32 2.64 2 4 C-2.43076923 6.09230769 -2.43076923 6.09230769 -5.3125 5.625 C-5.869375 5.41875 -6.42625 5.2125 -7 5 C-3.375 2 -3.375 2 0 2 C0 1.34 0 0.68 0 0 Z " fill="#5240FB" transform="translate(66,61)"/>
<path d="M0 0 C-0.33 1.32 -0.66 2.64 -1 4 C-1.99 4 -2.98 4 -4 4 C-4 4.66 -4 5.32 -4 6 C-4.99 6.33 -5.98 6.66 -7 7 C-6.61402985 4.20171644 -6.19863427 3.1794116 -4.0625 1.25 C-2 0 -2 0 0 0 Z " fill="#6E2CF9" transform="translate(65,58)"/>
<path d="M0 0 C1.65 0.33 3.3 0.66 5 1 C4.67 1.66 4.34 2.32 4 3 C3.34 3 2.68 3 2 3 C1.67 4.98 1.34 6.96 1 9 C-0.61949011 6.42786866 -1.04408751 5.32330841 -0.625 2.25 C-0.41875 1.5075 -0.2125 0.765 0 0 Z " fill="#D772EC" transform="translate(28,22)"/>
<path d="M0 0 C0.625 1.875 0.625 1.875 1 4 C0.34 4.66 -0.32 5.32 -1 6 C-1.99 6 -2.98 6 -4 6 C-3.67 4.35 -3.34 2.7 -3 1 C-2.01 0.67 -1.02 0.34 0 0 Z " fill="#550ACA" transform="translate(75,41)"/>
<path d="M0 0 C3.3 0.33 6.6 0.66 10 1 C9.67 1.66 9.34 2.32 9 3 C6.03 3 3.06 3 0 3 C0 2.01 0 1.02 0 0 Z " fill="#9B03D2" transform="translate(52,17)"/>
<path d="M0 0 C3.96 0 7.92 0 12 0 C12 0.66 12 1.32 12 2 C9.69 2 7.38 2 5 2 C5 2.66 5 3.32 5 4 C1.125 2.25 1.125 2.25 0 0 Z " fill="#B740EB" transform="translate(40,64)"/>
<path d="M0 0 C0.33 0.99 0.66 1.98 1 3 C1.66 3.33 2.32 3.66 3 4 C3.66 4.33 4.32 4.66 5 5 C5.33 5.99 5.66 6.98 6 8 C5.34 8 4.68 8 4 8 C4 7.34 4 6.68 4 6 C1.525 5.01 1.525 5.01 -1 4 C-0.67 2.68 -0.34 1.36 0 0 Z " fill="#7171FD" transform="translate(23,55)"/>
<path d="M0 0 C0.33 0 0.66 0 1 0 C1 3.63 1 7.26 1 11 C-0.32 11 -1.64 11 -3 11 C-2.34 10.01 -1.68 9.02 -1 8 C-0.54860541 5.9507906 -0.54860541 5.9507906 -0.375 3.8125 C-0.25125 2.554375 -0.1275 1.29625 0 0 Z " fill="#9548FA" transform="translate(77,41)"/>
<path d="M0 0 C2 3 2 3 4 6 C3.67 6.99 3.34 7.98 3 9 C0 7 0 7 -0.75 3.9375 C-0.8325 2.968125 -0.915 1.99875 -1 1 C-0.67 0.67 -0.34 0.34 0 0 Z " fill="#6B3CF8" transform="translate(13,34)"/>
<path d="M0 0 C1.65 0.33 3.3 0.66 5 1 C4.67 1.66 4.34 2.32 4 3 C3.34 2.67 2.68 2.34 2 2 C2 2.99 2 3.98 2 5 C1.01 4.67 0.02 4.34 -1 4 C-0.67 2.68 -0.34 1.36 0 0 Z " fill="#DB58FE" transform="translate(26,20)"/>
<path d="M0 0 C-0.33 1.32 -0.66 2.64 -1 4 C-2.65 3.67 -4.3 3.34 -6 3 C-6 2.34 -6 1.68 -6 1 C-3 0 -3 0 0 0 Z " fill="#624FFE" transform="translate(73,60)"/>
<path d="M0 0 C1.32 0 2.64 0 4 0 C4 0.66 4 1.32 4 2 C4.66 2.33 5.32 2.66 6 3 C5.67 3.99 5.34 4.98 5 6 C3.31237149 4.3545622 1.6459651 2.68711423 0 1 C0 0.67 0 0.34 0 0 Z " fill="#598AFE" transform="translate(17,58)"/>
<path d="M0 0 C1.32 0.66 2.64 1.32 4 2 C3.67 2.99 3.34 3.98 3 5 C1.68 4.67 0.36 4.34 -1 4 C-0.67 2.68 -0.34 1.36 0 0 Z " fill="#A160F0" transform="translate(30,56)"/>
<path d="M0 0 C0.33 1.32 0.66 2.64 1 4 C1.99 3.67 2.98 3.34 4 3 C4 4.65 4 6.3 4 8 C2.68 7.67 1.36 7.34 0 7 C0 4.69 0 2.38 0 0 Z " fill="#B16FFC" transform="translate(78,43)"/>
<path d="M0 0 C0 0.99 0 1.98 0 3 C-1.98 3.33 -3.96 3.66 -6 4 C-6.33 3.34 -6.66 2.68 -7 2 C-4 0 -4 0 0 0 Z " fill="#0B4DF7" transform="translate(74,67)"/>
<path d="M0 0 C0.66 0 1.32 0 2 0 C3.38232443 1.62626404 4.71937515 3.2925002 6 5 C3.69 4.67 1.38 4.34 -1 4 C-0.67 2.68 -0.34 1.36 0 0 Z " fill="#0C3ADC" transform="translate(8,46)"/>
<path d="M0 0 C1.5625 1.25 1.5625 1.25 3 3 C2.6875 5.1875 2.6875 5.1875 2 7 C1.01 6.34 0.02 5.68 -1 5 C-0.67 3.35 -0.34 1.7 0 0 Z " fill="#8E65FD" transform="translate(18,43)"/>
<path d="M0 0 C1.1577506 3.47325181 1.06866652 6.36067448 1 10 C0.67 10 0.34 10 0 10 C-0.28875 8.88625 -0.5775 7.7725 -0.875 6.625 C-1.69241329 2.99708908 -1.69241329 2.99708908 -4 1 C-2 0 -2 0 0 0 Z " fill="#C254E1" transform="translate(63,19)"/>
</svg>
